<svg id="XMLID_542_" xmlns="http://www.w3.org/2000/svg" width="30.512" height="19.736" viewBox="0 0 30.512 19.736">
  <g id="XMLID_536_" transform="translate(0)">
    <path id="XMLID_776_" d="M123.774,599.536h-2.631a.543.543,0,0,1-.544-.544V580.344a.543.543,0,0,1,.544-.544h2.631a.543.543,0,0,1,.544.544V599A.541.541,0,0,1,123.774,599.536Zm-2.087-1.087h1.544V580.878h-1.544Z" transform="translate(-120.6 -579.8)"/>
  </g>
  <g id="XMLID_538_" transform="translate(2.631 9.747)">
    <g id="XMLID_711_">
      <path id="XMLID_20_" d="M172.057,685.394H149.292A1.593,1.593,0,0,1,147.7,683.8v-2.01a1.593,1.593,0,0,1,1.592-1.592h22.765a1.593,1.593,0,0,1,1.592,1.592v2.01A1.6,1.6,0,0,1,172.057,685.394Zm-22.765-4.106a.507.507,0,0,0-.5.5v2.01a.508.508,0,0,0,.5.5h22.765a.508.508,0,0,0,.5-.5v-2.01a.508.508,0,0,0-.5-.5Z" transform="translate(-147.7 -680.2)"/>
    </g>
  </g>
  <g id="XMLID_540_" transform="translate(2.631 13.853)">
    <g id="XMLID_708_">
      <path id="XMLID_21_" d="M173.1,726.063H148.244a.543.543,0,0,1-.544-.544v-2.475a.543.543,0,0,1,.544-.544H173.1a.543.543,0,0,1,.544.544v2.475A.543.543,0,0,1,173.1,726.063Zm-24.308-1.087h23.765v-1.388H148.787Z" transform="translate(-147.7 -722.5)"/>
    </g>
  </g>
  <g id="XMLID_539_" transform="translate(27.493 12.455)">
    <g id="XMLID_705_">
      <path id="XMLID_22_" d="M406.275,715.381h-1.932a.543.543,0,0,1-.544-.544v-6.194a.543.543,0,0,1,.544-.544h1.932a.543.543,0,0,1,.544.544v6.194A.543.543,0,0,1,406.275,715.381Zm-1.4-1.087h.845v-5.106h-.845Z" transform="translate(-403.8 -708.1)"/>
    </g>
  </g>
  <g id="XMLID_541_" transform="translate(2.918 2.851)">
    <path id="XMLID_773_" d="M154.748,617.148a1.325,1.325,0,0,1-1.155-.67l-2.767-4.932a1.322,1.322,0,0,1,.5-1.8l.747-.417a1.287,1.287,0,0,1,1-.116,1.345,1.345,0,0,1,.8.621l2.767,4.932a1.322,1.322,0,0,1-.5,1.8h0l-.748.417A1.287,1.287,0,0,1,154.748,617.148Zm-2.029-6.893a.336.336,0,0,0-.117.029l-.747.417a.225.225,0,0,0-.087.311l2.767,4.932a.225.225,0,0,0,.311.087l.747-.417a.225.225,0,0,0,.087-.311l-2.757-4.932a.249.249,0,0,0-.136-.107C152.767,610.265,152.748,610.255,152.719,610.255Z" transform="translate(-150.656 -609.164)"/>
  </g>
</svg>
