<svg id="XMLID_529_" xmlns="http://www.w3.org/2000/svg" width="19.105" height="27.929" viewBox="0 0 19.105 27.929">
  <g id="XMLID_518_" transform="translate(0 0)">
    <g id="XMLID_735_">
      <path id="XMLID_13_" d="M868.461,222.432H850.444a.543.543,0,0,1-.544-.544V197.444a.543.543,0,0,1,.544-.544h18.018a.543.543,0,0,1,.544.544V221.9A.541.541,0,0,1,868.461,222.432Zm-17.474-1.087h16.931V197.987H850.987Z" transform="translate(-849.9 -196.9)"/>
    </g>
  </g>
  <g id="XMLID_521_" transform="translate(9.009 0.544)">
    <g id="XMLID_734_">
      <rect id="XMLID_803_" width="1.087" height="24.454"/>
    </g>
  </g>
  <g id="XMLID_520_" transform="translate(10.921 1.942)">
    <g id="XMLID_731_">
      <path id="XMLID_14_" d="M967.972,227.443h-5.029a.543.543,0,0,1-.544-.544v-9.455a.543.543,0,0,1,.544-.544h5.029a.543.543,0,0,1,.544.544V226.9A.543.543,0,0,1,967.972,227.443Zm-4.485-1.087h3.941v-8.368h-3.941Z" transform="translate(-962.4 -216.9)"/>
    </g>
  </g>
  <g id="XMLID_523_" transform="translate(12.699 4.692)">
    <g id="XMLID_730_" transform="translate(0 0)">
      <rect id="XMLID_802_" width="1.087" height="2.437" transform="translate(1.796 0) rotate(47.468)"/>
    </g>
  </g>
  <g id="XMLID_525_" transform="translate(13.49 7.308)">
    <g id="XMLID_729_" transform="translate(0 0)">
      <rect id="XMLID_801_" width="1.087" height="1.369" transform="translate(1.009 0) rotate(47.468)"/>
    </g>
  </g>
  <g id="XMLID_522_" transform="translate(7.116 14.164)">
    <g id="XMLID_526_" transform="translate(3.796)">
      <g id="XMLID_728_">
        <rect id="XMLID_800_" width="1.087" height="2.136"/>
      </g>
    </g>
    <g id="XMLID_527_">
      <g id="XMLID_727_">
        <rect id="XMLID_799_" width="1.087" height="2.136"/>
      </g>
    </g>
  </g>
  <g id="XMLID_528_" transform="translate(0 24.444)">
    <g id="XMLID_724_">
      <path id="XMLID_15_" d="M868.461,452.185H850.444a.543.543,0,0,1-.544-.544v-2.4a.543.543,0,0,1,.544-.544h18.018a.543.543,0,0,1,.544.544v2.4A.543.543,0,0,1,868.461,452.185ZM850.987,451.1h16.931v-1.311H850.987Z" transform="translate(-849.9 -448.7)"/>
    </g>
  </g>
</svg>
