<svg xmlns="http://www.w3.org/2000/svg" width="17" height="19" viewBox="0 0 17 19">
  <g id="Group_74" data-name="Group 74" transform="translate(-390 -93)">
    <g id="Group_37" data-name="Group 37" transform="translate(387 91)">
      <path id="Path_1374" data-name="Path 1374" d="M19.719,6.051a.5.5,0,0,1,.228.226l.007.015q.007.016.014.033A.5.5,0,0,1,20,6.51V10a.5.5,0,0,1-1,0V7.309L16.724,8.447a.5.5,0,1,1-.447-.894L18.382,6.5,16.276,5.447a.5.5,0,1,1,.447-.894ZM20,16.49a.5.5,0,0,1-.281.46l-3,1.5a.5.5,0,0,1-.447-.894L18.382,16.5l-2.106-1.053a.5.5,0,1,1,.447-.894L19,15.691V13a.5.5,0,0,1,1,0ZM4.618,16.5l2.106,1.053a.5.5,0,0,1-.447.894l-3-1.5a.5.5,0,0,1-.228-.226l-.007-.015q-.007-.016-.014-.033A.5.5,0,0,1,3,16.49V13a.5.5,0,0,1,1,0v2.691l2.276-1.138a.5.5,0,1,1,.447.894ZM4,7.309V10a.5.5,0,0,1-1,0V6.51a.5.5,0,0,1,.281-.46l3-1.5a.5.5,0,1,1,.447.894L4.618,6.5,6.724,7.553a.5.5,0,1,1-.447.894Zm7.267-5.252a.5.5,0,0,1,.465,0l2.991,1.5a.5.5,0,0,1-.447.894L12,3.309V6a.5.5,0,0,1-1,0V3.309L8.724,4.447a.5.5,0,0,1-.447-.894Zm.465,18.885a.5.5,0,0,1-.465,0l-2.991-1.5a.5.5,0,0,1,.447-.894L11,19.691V17a.5.5,0,0,1,1,0v2.691l2.276-1.138a.5.5,0,0,1,.447.894ZM12,10.809V13.5a.5.5,0,0,1-1,0V10.809L8.276,9.447a.5.5,0,1,1,.447-.894L11.5,9.941l2.776-1.388a.5.5,0,0,1,.447.894Z"/>
    </g>
  </g>
</svg>
