<svg id="XMLID_591_" xmlns="http://www.w3.org/2000/svg" width="16.843" height="25.939" viewBox="0 0 16.843 25.939">
  <g id="XMLID_587_">
    <g id="XMLID_686_">
      <path id="XMLID_25_" d="M1144.6,541.839h-15.756a.543.543,0,0,1-.544-.544V516.444a.543.543,0,0,1,.544-.544H1144.6a.543.543,0,0,1,.544.544V541.3A.543.543,0,0,1,1144.6,541.839Zm-15.222-1.087h14.669V516.987h-14.669Z" transform="translate(-1128.3 -515.9)"/>
    </g>
  </g>
  <g id="XMLID_589_" transform="translate(0.534 7.281)">
    <g id="XMLID_685_">
      <rect id="XMLID_786_" width="15.756" height="1.087"/>
    </g>
  </g>
  <g id="XMLID_590_" transform="translate(0.534 15.95)">
    <g id="XMLID_684_">
      <rect id="XMLID_785_" width="15.756" height="1.087"/>
    </g>
  </g>
  <g id="XMLID_588_" transform="translate(5.572 1.743)">
    <g id="XMLID_681_">
      <path id="XMLID_26_" d="M1188.075,540.484a.962.962,0,0,1-.155-.019l-1.835-.524a.537.537,0,0,1-.32-.262.564.564,0,0,1-.049-.417l1.447-5.009a.538.538,0,0,1,.67-.369l1.835.524a.537.537,0,0,1,.32.262.564.564,0,0,1,.048.417l-1.446,5.009A.512.512,0,0,1,1188.075,540.484Zm-1.155-1.437.786.223,1.146-3.971-.786-.223Z" transform="translate(-1185.696 -533.859)"/>
    </g>
  </g>
  <g id="XMLID_592_" transform="translate(9.116 2.068)">
    <g id="XMLID_678_">
      <path id="XMLID_27_" d="M1224.656,543.5h-1.912a.543.543,0,0,1-.543-.544v-5.213a.543.543,0,0,1,.543-.544h1.912a.543.543,0,0,1,.544.544v5.213A.543.543,0,0,1,1224.656,543.5Zm-1.359-1.087h.825v-4.126h-.825Z" transform="translate(-1222.2 -537.2)"/>
    </g>
  </g>
  <g id="XMLID_593_" transform="translate(11.028 2.068)">
    <g id="XMLID_675_">
      <path id="XMLID_28_" d="M1244.356,543.5h-1.912a.543.543,0,0,1-.543-.544v-5.213a.543.543,0,0,1,.543-.544h1.912a.543.543,0,0,1,.544.544v5.213A.543.543,0,0,1,1244.356,543.5Zm-1.369-1.087h.825v-4.126h-.825Z" transform="translate(-1241.9 -537.2)"/>
    </g>
  </g>
  <g id="XMLID_597_" transform="translate(4.948 10.377)">
    <g id="XMLID_672_">
      <path id="XMLID_29_" d="M1181.26,629.408a.5.5,0,0,1-.262-.068.536.536,0,0,1-.262-.32l-1.447-5.009a.537.537,0,0,1,.369-.67l1.835-.524a.569.569,0,0,1,.417.049.537.537,0,0,1,.262.32l1.447,5.009a.537.537,0,0,1-.369.67l-1.835.524A.454.454,0,0,1,1181.26,629.408Zm-.777-5.184,1.146,3.971.786-.223L1181.27,624Z" transform="translate(-1179.267 -622.796)"/>
    </g>
  </g>
  <g id="XMLID_596_" transform="translate(2.767 10.688)">
    <g id="XMLID_669_">
      <path id="XMLID_30_" d="M1159.256,632.3h-1.912a.543.543,0,0,1-.544-.544v-5.213a.543.543,0,0,1,.544-.544h1.912a.543.543,0,0,1,.544.544v5.213A.543.543,0,0,1,1159.256,632.3Zm-1.359-1.078h.825V627.1h-.825Z" transform="translate(-1156.8 -626)"/>
    </g>
  </g>
  <g id="XMLID_595_" transform="translate(0.864 10.688)">
    <g id="XMLID_666_">
      <path id="XMLID_31_" d="M1139.656,632.3h-1.912a.543.543,0,0,1-.544-.544v-5.213a.543.543,0,0,1,.544-.544h1.912a.543.543,0,0,1,.544.544v5.213A.543.543,0,0,1,1139.656,632.3Zm-1.369-1.078h.825V627.1h-.825Z" transform="translate(-1137.2 -626)"/>
    </g>
  </g>
  <g id="XMLID_594_" transform="translate(12.931 2.068)">
    <path id="XMLID_770_" d="M1263.956,543.5h-1.912a.543.543,0,0,1-.543-.544v-5.213a.543.543,0,0,1,.543-.544h1.912a.543.543,0,0,1,.544.544v5.213A.543.543,0,0,1,1263.956,543.5Zm-1.359-1.087h.825v-4.126h-.825Z" transform="translate(-1261.5 -537.2)"/>
  </g>
</svg>
