<svg id="XMLID_500_" xmlns="http://www.w3.org/2000/svg" width="36.474" height="21.872" viewBox="0 0 36.474 21.872">
  <g id="XMLID_502_" transform="translate(29.037 4.301)">
    <g id="XMLID_767_">
      <path id="XMLID_4_" d="M402.778,318.511h-4.834a.543.543,0,0,1-.544-.544v-5.038a15.908,15.908,0,0,1,1.3-6.32l.272-.631a3.938,3.938,0,0,1,3.621-2.378,2.243,2.243,0,0,1,2.058,3.136l-.087.2a14.814,14.814,0,0,0-1.233,5.922l-.01,5.106A.543.543,0,0,1,402.778,318.511Zm-4.291-1.087h3.747l.01-4.572a15.677,15.677,0,0,1,1.33-6.349l.087-.2a1.163,1.163,0,0,0-1.068-1.621,2.844,2.844,0,0,0-2.621,1.728l-.272.631a14.823,14.823,0,0,0-1.214,5.893Z" transform="translate(-397.4 -303.6)"/>
    </g>
  </g>
  <g id="XMLID_501_" transform="translate(6.301 14.552)">
    <g id="XMLID_764_">
      <path id="XMLID_5_" d="M186.479,413.86H163.744a.543.543,0,0,1-.544-.544v-3.573a.543.543,0,0,1,.544-.544h22.736a.543.543,0,0,1,.544.544v3.573A.543.543,0,0,1,186.479,413.86Zm-22.192-1.087h21.649v-2.485H164.287Z" transform="translate(-163.2 -409.2)"/>
    </g>
  </g>
  <g id="XMLID_505_" transform="translate(30.382 18.125)">
    <g id="XMLID_761_">
      <path id="XMLID_6_" d="M413.688,449.747H412.1a.547.547,0,0,1-.544-.485l-.291-2.66a.5.5,0,0,1,.136-.417A.553.553,0,0,1,411.8,446h2.175a.553.553,0,0,1,.408.184.522.522,0,0,1,.136.417l-.291,2.66A.547.547,0,0,1,413.688,449.747Zm-1.107-1.087h.621l.175-1.573h-.961Z" transform="translate(-411.257 -446)"/>
    </g>
  </g>
  <g id="XMLID_508_" transform="translate(0 4.301)">
    <path id="XMLID_782_" d="M105.183,318.511h-4.835a.543.543,0,0,1-.544-.544l-.01-5.106a14.815,14.815,0,0,0-1.233-5.922l-.087-.2a2.243,2.243,0,0,1,2.058-3.136,3.938,3.938,0,0,1,3.621,2.378l.272.631a15.909,15.909,0,0,1,1.3,6.32v5.038A.543.543,0,0,1,105.183,318.511Zm-4.291-1.087h3.747v-4.495a14.824,14.824,0,0,0-1.213-5.893l-.272-.631a2.854,2.854,0,0,0-2.621-1.728,1.163,1.163,0,0,0-1.068,1.621l.087.2a16.077,16.077,0,0,1,1.33,6.349Z" transform="translate(-98.289 -303.6)"/>
  </g>
  <g id="XMLID_503_" transform="translate(2.812 18.125)">
    <path id="XMLID_779_" d="M129.688,449.747H128.1a.547.547,0,0,1-.544-.485l-.291-2.66a.5.5,0,0,1,.136-.417A.553.553,0,0,1,127.8,446h2.175a.553.553,0,0,1,.408.184.522.522,0,0,1,.136.417l-.291,2.66A.547.547,0,0,1,129.688,449.747Zm-1.107-1.087h.621l.175-1.573h-.961Z" transform="translate(-127.257 -446)"/>
  </g>
  <g id="XMLID_506_" transform="translate(6.534 11.115)">
    <g id="XMLID_760_">
      <rect id="XMLID_808_" width="23.396" height="1.087"/>
    </g>
  </g>
  <g id="XMLID_507_" transform="translate(17.689 11.766)">
    <g id="XMLID_759_">
      <rect id="XMLID_807_" width="1.087" height="3.291"/>
    </g>
  </g>
  <g id="XMLID_504_" transform="translate(6.292 0)">
    <g id="XMLID_756_">
      <path id="XMLID_7_" d="M173.827,271.5h-8.97a1.757,1.757,0,0,1-1.757-1.757v-8.689a1.757,1.757,0,0,1,1.757-1.757h8.97a1.757,1.757,0,0,1,1.757,1.757v8.689A1.757,1.757,0,0,1,173.827,271.5Zm-8.96-11.115a.671.671,0,0,0-.67.67v8.689a.671.671,0,0,0,.67.67h8.97a.671.671,0,0,0,.67-.67v-8.689a.671.671,0,0,0-.67-.67Z" transform="translate(-163.1 -259.3)"/>
    </g>
  </g>
  <g id="XMLID_509_" transform="translate(17.669 0)">
    <g id="XMLID_753_">
      <path id="XMLID_8_" d="M291.027,271.5h-8.97a1.757,1.757,0,0,1-1.757-1.757v-8.689a1.757,1.757,0,0,1,1.757-1.757h8.97a1.757,1.757,0,0,1,1.757,1.757v8.689A1.763,1.763,0,0,1,291.027,271.5Zm-8.97-11.115a.671.671,0,0,0-.67.67v8.689a.671.671,0,0,0,.67.67h8.97a.671.671,0,0,0,.67-.67v-8.689a.671.671,0,0,0-.67-.67Z" transform="translate(-280.3 -259.3)"/>
    </g>
  </g>
</svg>
